<svg xmlns="http://www.w3.org/2000/svg" width="40.385" height="49.472" viewBox="0 0 40.385 49.472">
  <g id="Group_738" data-name="Group 738" transform="translate(0 -11.325)">
    <g id="Group_728" data-name="Group 728" transform="translate(0 11.325)">
      <path id="Path_214" data-name="Path 214" d="M135.123,120H97.262A1.263,1.263,0,0,0,96,121.262s0,46.992,0,47.012a1.259,1.259,0,0,0,1.259,1.2h37.861a1.26,1.26,0,0,0,1.259-1.193c0-.021,0-18.368,0-18.368a1.262,1.262,0,1,0-2.524,0v11.358h-8.834v-8.2a1.262,1.262,0,0,0-1.262-1.262H108.62a1.262,1.262,0,0,0-1.262,1.262v8.2H98.524v-33.7h35.337v10.98a1.262,1.262,0,0,0,2.524,0v-17.29A1.263,1.263,0,0,0,135.123,120Zm-10.1,43.793h8.834v3.155h-8.834Zm-7.572-9.465H122.5v12.62h-5.048Zm-7.572,0h5.048v12.62h-5.048Zm-2.524,9.465v3.155H98.524v-3.155Zm26.5-38.745H98.524v-2.524h35.337Z" transform="translate(-96 -120)" fill="#eee"/>
      <ellipse id="Ellipse_42" data-name="Ellipse 42" cx="1.219" cy="2.438" rx="1.219" ry="2.438" transform="translate(36.924 21.991)" fill="#eee"/>
      <path id="Path_215" data-name="Path 215" d="M232.31,287h-5.048A1.262,1.262,0,0,0,226,288.262v5.048a1.262,1.262,0,0,0,1.262,1.262h5.048a1.262,1.262,0,0,0,1.262-1.262v-5.048A1.262,1.262,0,0,0,232.31,287Zm-1.262,5.048h-2.524v-2.524h2.524Z" transform="translate(-209.594 -265.924)" fill="#eee"/>
      <path id="Path_216" data-name="Path 216" d="M233.572,203.262A1.262,1.262,0,0,0,232.31,202h-5.048A1.262,1.262,0,0,0,226,203.262v5.048a1.262,1.262,0,0,0,1.262,1.262h5.048a1.262,1.262,0,0,0,1.262-1.262Zm-2.524,3.786h-2.524v-2.524h2.524Z" transform="translate(-209.594 -191.651)" fill="#eee"/>
      <path id="Path_217" data-name="Path 217" d="M147.31,287h-5.048A1.262,1.262,0,0,0,141,288.262v5.048a1.262,1.262,0,0,0,1.262,1.262h5.048a1.262,1.262,0,0,0,1.262-1.262v-5.048A1.262,1.262,0,0,0,147.31,287Zm-1.262,5.048h-2.524v-2.524h2.524Z" transform="translate(-135.321 -265.924)" fill="#eee"/>
      <path id="Path_218" data-name="Path 218" d="M148.572,203.262A1.262,1.262,0,0,0,147.31,202h-5.048A1.262,1.262,0,0,0,141,203.262v5.048a1.262,1.262,0,0,0,1.262,1.262h5.048a1.262,1.262,0,0,0,1.262-1.262Zm-2.524,3.786h-2.524v-2.524h2.524Z" transform="translate(-135.321 -191.651)" fill="#eee"/>
      <path id="Path_219" data-name="Path 219" d="M317.31,287h-5.048A1.262,1.262,0,0,0,311,288.262v5.048a1.262,1.262,0,0,0,1.262,1.262h5.048a1.262,1.262,0,0,0,1.262-1.262v-5.048A1.262,1.262,0,0,0,317.31,287Zm-1.262,5.048h-2.524v-2.524h2.524Z" transform="translate(-283.867 -265.924)" fill="#eee"/>
      <path id="Path_220" data-name="Path 220" d="M318.572,203.262A1.262,1.262,0,0,0,317.31,202h-5.048A1.262,1.262,0,0,0,311,203.262v5.048a1.262,1.262,0,0,0,1.262,1.262h5.048a1.262,1.262,0,0,0,1.262-1.262Zm-2.524,3.786h-2.524v-2.524h2.524Z" transform="translate(-283.867 -191.651)" fill="#eee"/>
    </g>
  </g>
</svg>
