<svg xmlns="http://www.w3.org/2000/svg" width="14.392" height="17.63" viewBox="0 0 14.392 17.63">
  <g id="Group_744" data-name="Group 744" transform="translate(-1711.854 114.021)">
    <path id="Path_214" data-name="Path 214" d="M109.942,120H96.45a.45.45,0,0,0-.45.45S96,137.2,96,137.2a.449.449,0,0,0,.449.427h13.493a.449.449,0,0,0,.449-.425c0-.008,0-6.546,0-6.546a.45.45,0,1,0-.9,0v4.048h-3.148v-2.923a.45.45,0,0,0-.45-.45h-5.4a.45.45,0,0,0-.45.45v2.923H96.9V122.7h12.593v3.913a.45.45,0,0,0,.9,0V120.45a.45.45,0,0,0-.45-.45Zm-3.6,15.607h3.148v1.124h-3.148Zm-2.7-3.373h1.8v4.5h-1.8Zm-2.7,0h1.8v4.5h-1.8Zm-.9,3.373v1.124H96.9v-1.124Zm9.445-13.808H96.9v-.9h12.593Z" transform="translate(1615.854 -234.021)" fill="#968c9c"/>
    <ellipse id="Ellipse_42" data-name="Ellipse 42" cx="0.434" cy="0.869" rx="0.434" ry="0.869" transform="translate(1725.012 -106.184)" fill="#968c9c"/>
    <path id="Path_215" data-name="Path 215" d="M228.249,287h-1.8a.45.45,0,0,0-.45.45v1.8a.45.45,0,0,0,.45.45h1.8a.45.45,0,0,0,.45-.45v-1.8A.45.45,0,0,0,228.249,287Zm-.45,1.8h-.9v-.9h.9Z" transform="translate(1491.7 -393.51)" fill="#968c9c"/>
    <path id="Path_216" data-name="Path 216" d="M228.7,202.45a.45.45,0,0,0-.45-.45h-1.8a.45.45,0,0,0-.45.45v1.8a.45.45,0,0,0,.45.45h1.8a.45.45,0,0,0,.45-.45Zm-.9,1.349h-.9v-.9h.9Z" transform="translate(1491.7 -312.333)" fill="#968c9c"/>
    <path id="Path_217" data-name="Path 217" d="M143.249,287h-1.8a.45.45,0,0,0-.45.45v1.8a.45.45,0,0,0,.45.45h1.8a.45.45,0,0,0,.45-.45v-1.8A.45.45,0,0,0,143.249,287Zm-.45,1.8h-.9v-.9h.9Z" transform="translate(1572.877 -393.51)" fill="#968c9c"/>
    <path id="Path_218" data-name="Path 218" d="M143.7,202.45a.45.45,0,0,0-.45-.45h-1.8a.45.45,0,0,0-.45.45v1.8a.45.45,0,0,0,.45.45h1.8a.45.45,0,0,0,.45-.45Zm-.9,1.349h-.9v-.9h.9Z" transform="translate(1572.877 -312.333)" fill="#968c9c"/>
    <path id="Path_219" data-name="Path 219" d="M313.249,287h-1.8a.45.45,0,0,0-.45.45v1.8a.45.45,0,0,0,.45.45h1.8a.45.45,0,0,0,.45-.45v-1.8A.45.45,0,0,0,313.249,287Zm-.45,1.8h-.9v-.9h.9Z" transform="translate(1410.523 -393.51)" fill="#968c9c"/>
    <path id="Path_220" data-name="Path 220" d="M313.7,202.45a.45.45,0,0,0-.45-.45h-1.8a.45.45,0,0,0-.45.45v1.8a.45.45,0,0,0,.45.45h1.8a.45.45,0,0,0,.45-.45Zm-.9,1.349h-.9v-.9h.9Z" transform="translate(1410.523 -312.333)" fill="#968c9c"/>
  </g>
</svg>
