<svg width="23" height="19" viewBox="0 0 23 19" fill="none" xmlns="http://www.w3.org/2000/svg">
<path d="M21.9191 7.83297H19.6961V5.60897C19.6958 5.46159 19.6372 5.32033 19.533 5.21611C19.4287 5.1119 19.2875 5.05324 19.1401 5.05297H18.0291C17.8817 5.05324 17.7404 5.1119 17.6362 5.21611C17.532 5.32033 17.4734 5.46159 17.4731 5.60897V7.83297H15.2461C15.0987 7.83324 14.9574 7.8919 14.8532 7.99611C14.749 8.10033 14.6904 8.24159 14.6901 8.38897V9.49997C14.6904 9.64735 14.749 9.78862 14.8532 9.89283C14.9574 9.99705 15.0987 10.0557 15.2461 10.056H17.4691V12.279C17.4694 12.4264 17.528 12.5676 17.6322 12.6718C17.7364 12.776 17.8777 12.8347 18.0251 12.835H19.1361C19.2835 12.8347 19.4247 12.776 19.529 12.6718C19.6332 12.5676 19.6918 12.4264 19.6921 12.279V10.056H21.9151C22.0625 10.0557 22.2037 9.99705 22.308 9.89283C22.4122 9.78862 22.4708 9.64735 22.4711 9.49997V8.38897C22.4708 8.24228 22.4127 8.10162 22.3094 7.99752C22.206 7.89342 22.0658 7.83429 21.9191 7.83297ZM8.02609 9.49997C8.90547 9.49997 9.7651 9.23919 10.4963 8.75062C11.2274 8.26204 11.7973 7.56761 12.1338 6.75515C12.4702 5.94269 12.5582 5.0487 12.3866 4.18623C12.215 3.32377 11.7914 2.53157 11.1695 1.90982C10.5477 1.28808 9.75536 0.864717 8.89285 0.69328C8.03035 0.521843 7.13637 0.610031 6.32399 0.946692C5.51161 1.28335 4.81731 1.85336 4.32889 2.58464C3.84048 3.31591 3.5799 4.17559 3.58009 5.05497C3.58009 5.63878 3.6951 6.21687 3.91855 6.75623C4.14199 7.29559 4.4695 7.78565 4.88236 8.19842C5.29522 8.61119 5.78535 8.93858 6.32476 9.16191C6.86417 9.38523 7.44228 9.5001 8.02609 9.49997ZM11.1381 10.609H10.5581C9.7642 10.9751 8.90035 11.1647 8.02609 11.1647C7.15184 11.1647 6.28799 10.9751 5.49409 10.609H4.91409C4.30087 10.6091 3.69367 10.73 3.12719 10.9649C2.56071 11.1997 2.04603 11.5438 1.61255 11.9776C1.17907 12.4113 0.83529 12.9262 0.600831 13.4928C0.366372 14.0595 0.245831 14.6667 0.246094 15.28V16.725C0.246359 17.167 0.422074 17.5909 0.73464 17.9034C1.04721 18.216 1.47106 18.3917 1.91309 18.392H14.1391C14.5811 18.3917 15.005 18.216 15.3175 17.9034C15.6301 17.5909 15.8058 17.167 15.8061 16.725V15.28C15.8064 14.6667 15.6858 14.0595 15.4514 13.4928C15.2169 12.9262 14.8731 12.4113 14.4396 11.9776C14.0062 11.5438 13.4915 11.1997 12.925 10.9649C12.3585 10.73 11.7513 10.6091 11.1381 10.609Z" fill="#968C9C"/>
</svg>
