<svg width="18" height="18" viewBox="0 0 18 18" fill="none" xmlns="http://www.w3.org/2000/svg">
<path d="M15.364 2.63602C13.6641 0.936176 11.404 0 9 0C6.59602 0 4.33593 0.936176 2.63602 2.63602C0.936176 4.33593 0 6.59602 0 9C0 11.404 0.936176 13.6641 2.63602 15.364C4.33593 17.0638 6.59602 18 9 18C11.404 18 13.6641 17.0638 15.364 15.364C17.0638 13.6641 18 11.404 18 9C18 6.59602 17.0638 4.33593 15.364 2.63602ZM9 16.9453C4.61893 16.9453 1.05469 13.3811 1.05469 9C1.05469 4.61893 4.61893 1.05469 9 1.05469C13.3811 1.05469 16.9453 4.61893 16.9453 9C16.9453 13.3811 13.3811 16.9453 9 16.9453Z" fill="#EEEEEE"/>
<path d="M9 2.8125C7.93382 2.8125 7.06641 3.67991 7.06641 4.74609C7.06641 5.81228 7.93382 6.67969 9 6.67969C10.0662 6.67969 10.9336 5.81228 10.9336 4.74609C10.9336 3.67991 10.0662 2.8125 9 2.8125ZM9 5.625C8.51537 5.625 8.12109 5.23072 8.12109 4.74609C8.12109 4.26146 8.51537 3.86719 9 3.86719C9.48463 3.86719 9.87891 4.26146 9.87891 4.74609C9.87891 5.23072 9.48463 5.625 9 5.625Z" fill="#EEEEEE"/>
<path d="M10.7578 14.0625V7.73438H6.53906V8.78906H7.24219V14.0625H6.53906V15.1172H11.4609V14.0625H10.7578ZM9.70312 14.0625H8.29688V8.78906H9.70312V14.0625Z" fill="#EEEEEE"/>
</svg>
