<svg width="23" height="24" viewBox="0 0 23 24" fill="none" xmlns="http://www.w3.org/2000/svg">
<path d="M21.275 0H1.725C1.2675 0 0.828741 0.237053 0.505241 0.65901C0.181741 1.08097 0 1.65326 0 2.25L0 17.25C0 17.8467 0.181741 18.419 0.505241 18.841C0.828741 19.2629 1.2675 19.5 1.725 19.5H10.35V21H4.025C3.8725 21 3.72625 21.079 3.61841 21.2197C3.51058 21.3603 3.45 21.5511 3.45 21.75V23.25C3.45 23.4489 3.51058 23.6397 3.61841 23.7803C3.72625 23.921 3.8725 24 4.025 24H18.975C19.1275 24 19.2738 23.921 19.3816 23.7803C19.4894 23.6397 19.55 23.4489 19.55 23.25V21.75C19.55 21.5511 19.4894 21.3603 19.3816 21.2197C19.2738 21.079 19.1275 21 18.975 21H12.65V19.5H21.275C21.7325 19.5 22.1713 19.2629 22.4948 18.841C22.8183 18.419 23 17.8467 23 17.25V2.25C23 1.65326 22.8183 1.08097 22.4948 0.65901C22.1713 0.237053 21.7325 0 21.275 0V0ZM20.7 16.5H2.3V3H20.7V16.5Z" fill="#F9F9F9"/>
</svg>
