<svg width="18" height="18" viewBox="0 0 18 18" fill="none" xmlns="http://www.w3.org/2000/svg">
<path d="M3.4089 7.6828C3.79707 7.6828 4.11174 7.35047 4.11174 6.94052C4.11174 6.53057 3.79707 6.19824 3.4089 6.19824C3.02073 6.19824 2.70605 6.53057 2.70605 6.94052C2.70605 7.35047 3.02073 7.6828 3.4089 7.6828Z" fill="#EEEEEE"/>
<path d="M8.99661 4.44936C10.0035 4.44936 10.8855 5.28996 11.0938 6.44808C11.1662 6.85086 11.534 7.11536 11.9155 7.03876C12.2968 6.96228 12.5472 6.57376 12.4748 6.17103C12.1406 4.31325 10.6778 2.96484 8.99657 2.96484C7.03949 2.96484 5.44727 4.76295 5.44727 6.97308C5.44727 7.88526 5.7257 8.77799 6.23132 9.48678C6.73908 10.1986 7.45258 10.697 8.24032 10.8901C8.29376 10.9032 8.3472 10.9094 8.39979 10.9094C8.71936 10.9094 9.00849 10.6777 9.08383 10.3348C9.17158 9.93541 8.93617 9.53661 8.55803 9.44393C7.57003 9.20185 6.85292 8.16265 6.85292 6.97305C6.85295 5.5815 7.81458 4.44936 8.99661 4.44936Z" fill="#EEEEEE"/>
<path d="M8.99631 12.4702H2.81134C2.03625 12.4702 1.40565 11.8042 1.40565 10.9856V2.96908C1.40565 2.1505 2.03625 1.48452 2.81134 1.48452H15.1812C15.9563 1.48452 16.5869 2.1505 16.5869 2.96908V6.27217C16.5869 6.68211 16.9016 7.01445 17.2898 7.01445C17.6779 7.01445 17.9926 6.68215 17.9926 6.27217V2.96908C17.9926 1.33192 16.7315 0 15.1813 0H2.81134C1.26116 0 0 1.33192 0 2.96908V10.9856C0 12.6228 1.26116 13.9547 2.81134 13.9547H8.99627C9.38443 13.9547 9.69912 13.6224 9.69912 13.2124C9.69912 12.8025 9.38447 12.4702 8.99631 12.4702Z" fill="#EEEEEE"/>
<path d="M17.3887 8.60499C17.0754 8.36306 16.6357 8.43527 16.4066 8.76624L10.8542 16.7889C10.6252 17.1198 10.6935 17.5843 11.0069 17.8262C11.132 17.9228 11.2771 17.9692 11.4211 17.9692C11.6377 17.9692 11.8514 17.8638 11.9891 17.6649L17.5415 9.64226C17.7705 9.31133 17.7022 8.84692 17.3887 8.60499Z" fill="#EEEEEE"/>
<path d="M16.2434 14.2891C15.2745 14.2891 14.4863 15.1215 14.4863 16.1447C14.4863 17.1679 15.2746 18.0004 16.2434 18.0004C17.2123 18.0004 18.0005 17.1679 18.0005 16.1447C18.0005 15.1215 17.2122 14.2891 16.2434 14.2891ZM16.2434 16.5159C16.0496 16.5159 15.892 16.3494 15.892 16.1448C15.892 15.9401 16.0496 15.7736 16.2434 15.7736C16.4372 15.7736 16.5948 15.9401 16.5948 16.1448C16.5948 16.3494 16.4371 16.5159 16.2434 16.5159Z" fill="#EEEEEE"/>
<path d="M12.1243 12.0619C13.0931 12.0619 13.8813 11.2294 13.8813 10.2062C13.8813 9.18305 13.0931 8.35059 12.1243 8.35059C11.1554 8.35059 10.3672 9.18305 10.3672 10.2062C10.3672 11.2295 11.1554 12.0619 12.1243 12.0619ZM12.1243 9.83511C12.318 9.83511 12.4757 10.0016 12.4757 10.2062C12.4757 10.4109 12.318 10.5774 12.1243 10.5774C11.9305 10.5774 11.7728 10.4109 11.7728 10.2062C11.7728 10.0016 11.9305 9.83511 12.1243 9.83511Z" fill="#EEEEEE"/>
</svg>
