<svg width="23" height="17" viewBox="0 0 23 17" fill="none" xmlns="http://www.w3.org/2000/svg">
<path d="M4.79175 9.49961C4.50425 9.49961 4.21675 9.39961 4.02508 9.09961C3.64175 8.69961 3.73758 7.99961 4.12092 7.69961C8.43342 3.99961 14.5668 3.99961 18.8793 7.69961C19.2626 8.09961 19.3584 8.69961 18.9751 9.09961C18.5918 9.49961 18.0168 9.59961 17.6334 9.19961C14.0876 6.09961 8.91258 6.09961 5.36675 9.19961C5.27092 9.49961 4.98342 9.49961 4.79175 9.49961Z" fill="#F9F9F9"/>
<path d="M1.34175 5.99961C1.05425 5.99961 0.766751 5.89961 0.575084 5.69961C0.191751 5.29961 0.287584 4.69961 0.670918 4.29961C6.80425 -1.30039 16.1001 -1.30039 22.2334 4.29961C22.6168 4.69961 22.7126 5.29961 22.3293 5.69961C21.9459 6.09961 21.3709 6.19961 20.9876 5.79961C15.5251 0.799609 7.37925 0.799609 2.01258 5.79961C1.82092 5.89961 1.62925 5.99961 1.34175 5.99961Z" fill="#F9F9F9"/>
<path d="M14.8543 13.0996C14.6626 13.0996 14.4709 12.9996 14.2793 12.8996C12.6501 11.6996 10.3501 11.6996 8.72092 12.8996C8.24175 13.1996 7.66675 13.0996 7.37925 12.6996C7.09175 12.1996 7.18758 11.5996 7.57092 11.2996C9.87092 9.59961 13.0334 9.59961 15.3334 11.2996C15.8126 11.5996 15.9084 12.1996 15.5251 12.6996C15.4293 12.9996 15.1418 13.0996 14.8543 13.0996Z" fill="#F9F9F9"/>
<path d="M11.5001 16.9996C11.4043 16.9996 11.2126 16.9996 11.1168 16.8996C11.0209 16.8996 10.9251 16.7996 10.8293 16.6996C10.6376 16.4996 10.5418 16.2996 10.5418 15.9996C10.5418 15.8996 10.5418 15.6996 10.6376 15.5996C10.7334 15.4996 10.7334 15.3996 10.8293 15.2996C11.2126 14.8996 11.7876 14.8996 12.1709 15.2996C12.3626 15.4996 12.4584 15.7996 12.4584 15.9996C12.4584 16.2996 12.3626 16.4996 12.1709 16.6996C11.9793 16.8996 11.7876 16.9996 11.5001 16.9996Z" fill="#F9F9F9"/>
</svg>
