<svg width="17" height="17" viewBox="0 0 17 17" fill="none" xmlns="http://www.w3.org/2000/svg">
<path d="M15.7089 5.7127C15.7619 5.42876 15.7887 5.14054 15.7891 4.85168C15.7858 2.16894 13.6084 -0.00323397 10.9257 3.61448e-06C8.88344 0.00245849 7.06086 1.28202 6.36482 3.20198C5.11856 2.70588 3.70608 3.31397 3.20995 4.56023C3.16701 4.6681 3.13186 4.77889 3.10478 4.89178C1.11484 5.18939 -0.257041 7.04381 0.0405673 9.03376C0.307472 10.8184 1.84066 12.1388 3.64517 12.1381H6.68114C7.0165 12.1381 7.28835 11.8662 7.28835 11.5309C7.28835 11.1955 7.0165 10.9237 6.68114 10.9237H3.64517C2.30378 10.9237 1.21638 9.83625 1.21638 8.49486C1.21638 7.15347 2.30378 6.06606 3.64517 6.06606C3.98053 6.06606 4.25238 5.79421 4.25238 5.45886C4.25348 4.78818 4.79807 4.24537 5.46875 4.24647C5.78593 4.247 6.09033 4.3716 6.31682 4.5936C6.55566 4.82899 6.94011 4.82618 7.17549 4.58734C7.26387 4.49765 7.32218 4.38273 7.34235 4.25842C7.67195 2.27556 9.54654 0.935346 11.5294 1.26494C13.5123 1.59453 14.8525 3.46913 14.5229 5.45199C14.5033 5.57022 14.4777 5.68741 14.4465 5.80311C14.3767 6.05656 14.478 6.32614 14.6973 6.47101C15.815 7.21263 16.1199 8.71996 15.3783 9.83767C14.9294 10.5142 14.1722 10.9217 13.3603 10.9236H11.5387C11.2033 10.9236 10.9315 11.1954 10.9315 11.5308C10.9315 11.8661 11.2033 12.138 11.5387 12.138H13.3603C15.3723 12.1361 17.0019 10.5034 17 8.49137C16.999 7.42044 16.5268 6.40416 15.7089 5.7127Z" fill="#EEEEEE"/>
<path d="M12.5614 12.9232C12.3261 12.6959 11.953 12.6959 11.7178 12.9232L9.71703 14.9227V6.06611C9.71703 5.73075 9.44518 5.4589 9.10983 5.4589C8.77447 5.4589 8.50262 5.73075 8.50262 6.06611V14.9226L6.50311 12.9231C6.26189 12.6902 5.87751 12.6969 5.64454 12.938C5.41727 13.1734 5.41727 13.5464 5.64454 13.7817L8.68051 16.8177C8.91731 17.0551 9.3018 17.0556 9.53921 16.8187L9.54032 16.8177L12.5763 13.7817C12.8093 13.5405 12.8026 13.1561 12.5614 12.9232Z" fill="#EEEEEE"/>
</svg>
