<svg width="18" height="18" viewBox="0 0 18 18" fill="none" xmlns="http://www.w3.org/2000/svg">
<path d="M4.14119 6.1292C4.00408 5.99209 3.78119 5.99209 3.64411 6.1292C3.50665 6.26666 3.50665 6.4892 3.64411 6.62631C3.78122 6.76378 4.00411 6.76378 4.14119 6.62631C4.27861 6.4892 4.27861 6.26666 4.14119 6.1292Z" fill="#EEEEEE"/>
<path d="M8.90153 15.7406C9.05653 15.5306 9.14031 15.2777 9.14031 15.0117C9.14031 14.3332 8.58836 13.7812 7.90988 13.7812H1.93352C1.60471 13.7812 1.29572 13.9092 1.06344 14.1416C0.831059 14.3739 0.70309 14.6829 0.70309 15.0117C0.70309 15.2841 0.792246 15.5361 0.94268 15.7401C0.382887 16.0345 0 16.6216 0 17.2968V17.6483C0 17.8425 0.15743 17.9999 0.351563 17.9999H9.49184C9.68597 17.9999 9.8434 17.8425 9.8434 17.6483V17.2968C9.8434 16.6219 9.4609 16.035 8.90153 15.7406ZM1.56059 14.6387C1.66011 14.5391 1.79258 14.4843 1.93352 14.4843H7.90988C8.20065 14.4843 8.43718 14.7209 8.43718 15.0116C8.43718 15.1526 8.38234 15.285 8.28278 15.3846C8.18325 15.4842 8.05078 15.539 7.90984 15.539H1.93352C1.64275 15.539 1.40621 15.3024 1.40621 15.0117C1.40621 14.8707 1.46102 14.7382 1.56059 14.6387ZM0.70309 17.2968C0.70309 16.7152 1.17622 16.2421 1.75774 16.2421H1.93352H7.90988H8.08566C8.66718 16.2421 9.14031 16.7152 9.14031 17.2968H0.70309Z" fill="#EEEEEE"/>
<path d="M17.673 14.7701C17.5536 14.585 17.4112 14.4214 17.2496 14.2837L15.6069 12.851C15.5941 12.8317 15.5793 12.8135 15.5623 12.7965C15.5337 12.768 15.5014 12.7457 15.467 12.7291L14.4736 11.8626L9.87552 7.85158C10.0638 7.65481 10.1674 7.3975 10.1674 7.12387C10.1674 6.84199 10.0577 6.57708 9.85823 6.37767C9.77125 6.2908 9.67239 6.22249 9.56675 6.17247L9.99214 5.74707C10.111 5.77868 10.2332 5.79485 10.3555 5.79485C10.7155 5.79481 11.0756 5.65777 11.3497 5.38369C11.6154 5.11802 11.7617 4.76487 11.7617 4.38929C11.7617 4.01371 11.6154 3.66057 11.3497 3.39489L8.36676 0.411999C8.10108 0.146321 7.7479 0 7.37222 0C6.99672 0 6.64365 0.146321 6.37801 0.411999C6.01083 0.779174 5.88997 1.30051 6.01463 1.76957L1.77039 6.0138C1.65311 5.98262 1.53108 5.96617 1.40642 5.96617C1.03067 5.96617 0.677664 6.11238 0.412199 6.37782C-0.136098 6.92612 -0.136098 7.81828 0.412199 8.36662L3.3951 11.3496C3.66929 11.6237 4.02939 11.7608 4.3895 11.7608C4.74964 11.7608 5.10974 11.6237 5.38393 11.3496C5.7511 10.9824 5.87197 10.4611 5.7473 9.99201L6.17181 9.56746C6.22283 9.67399 6.29205 9.77228 6.37804 9.85824C6.57724 10.0574 6.84207 10.1672 7.12388 10.1672C7.39722 10.1672 7.65442 10.0637 7.85147 9.87568L12.749 15.5026C12.7625 15.5237 12.7782 15.5438 12.7966 15.5622C12.8029 15.5685 12.8096 15.5742 12.8162 15.5799L14.2756 17.2567C14.3119 17.2995 14.3507 17.3416 14.3909 17.3819C14.7917 17.7826 15.3212 18 15.877 18C15.975 18 16.0739 17.9932 16.1729 17.9795C16.8348 17.8879 17.4069 17.4919 17.7424 16.8929C18.1099 16.2364 18.0825 15.403 17.673 14.7701ZM6.87522 0.909183C7.00807 0.776326 7.18463 0.70313 7.37226 0.70313C7.56013 0.70313 7.73679 0.776326 7.86961 0.909183L10.8526 3.89211C10.9854 4.02497 11.0586 4.20156 11.0586 4.38933C11.0586 4.5771 10.9854 4.75369 10.8525 4.88655C10.5785 5.16066 10.1325 5.16066 9.85844 4.88655L6.8754 1.90348C6.87533 1.90341 6.87529 1.90337 6.87522 1.9033C6.60111 1.62922 6.60111 1.18326 6.87522 0.909183ZM4.88675 10.8524C4.6126 11.1265 4.16643 11.1266 3.89228 10.8524L0.909379 7.86947C0.635195 7.59529 0.635195 7.14922 0.909379 6.875C1.04199 6.74235 1.21854 6.6693 1.40642 6.6693C1.59426 6.6693 1.77071 6.74232 1.90328 6.87486L4.88671 9.85831C5.16086 10.1324 5.16086 10.5784 4.88675 10.8524ZM6.3669 8.37808L5.38389 9.36113L2.40067 6.37789L6.37801 2.40045L9.36119 5.38369L8.37639 6.36853C8.37319 6.37156 8.37006 6.37451 8.36669 6.37785L6.37902 8.36557C6.37491 8.36961 6.37094 8.37383 6.3669 8.37808ZM7.62218 9.11148C7.62148 9.11218 7.62081 9.11285 7.62011 9.11356L7.37254 9.36113C7.30613 9.4275 7.21785 9.46407 7.12384 9.46407C7.02987 9.46407 6.94156 9.4275 6.87518 9.36109C6.8087 9.29465 6.77211 9.20626 6.77211 9.11222C6.77211 9.02018 6.80723 8.93359 6.87097 8.86827L8.86788 6.87134C9.00474 6.73824 9.22601 6.73989 9.36126 6.875C9.4277 6.94144 9.4643 7.02983 9.4643 7.12387C9.4643 7.21785 9.42781 7.30598 9.36122 7.37239L9.1151 7.61852C9.11341 7.62018 9.11172 7.62186 9.11007 7.62355L7.62218 9.11148ZM8.3502 9.37779L9.37768 8.35031L13.728 12.1449L12.1405 13.7324L8.3502 9.37779ZM12.6032 14.2641L14.2591 12.6082L14.7902 13.0714L13.0659 14.7957L12.6032 14.2641ZM17.129 16.5494C16.9021 16.9545 16.5185 17.2219 16.0765 17.2831C15.6356 17.3441 15.2024 17.1989 14.888 16.8847C14.861 16.8577 14.8351 16.8295 14.811 16.801C14.8098 16.7996 14.8087 16.7983 14.8076 16.797L13.5286 15.3274L15.3212 13.5347L16.789 14.815C16.7901 14.8159 16.7912 14.8169 16.7924 14.8179C16.9022 14.9113 16.9997 15.0235 17.0825 15.1517C17.3483 15.5625 17.3669 16.1243 17.129 16.5494Z" fill="#EEEEEE"/>
<path d="M6.62691 3.643C6.48959 3.50572 6.26705 3.50572 6.12973 3.643L4.63812 5.13462C4.50083 5.27191 4.50083 5.49452 4.63812 5.63177C4.70678 5.70043 4.79675 5.73475 4.88671 5.73475C4.97667 5.73475 5.06664 5.7004 5.1353 5.63177L6.62691 4.14015C6.76419 4.0029 6.76419 3.78033 6.62691 3.643Z" fill="#EEEEEE"/>
</svg>
