<svg width="18" height="18" viewBox="0 0 18 18" fill="none" xmlns="http://www.w3.org/2000/svg">
<path d="M18.0001 10.2858C18.0015 9.64207 17.8293 9.00826 17.4994 8.44214C17.1694 7.87601 16.6921 7.39557 16.111 7.04461C15.5298 6.69364 14.8633 6.48332 14.1722 6.4328C13.4811 6.38228 12.7874 6.49317 12.1543 6.75537C11.5211 7.01757 10.9688 7.42274 10.5475 7.93395C10.1262 8.44516 9.84934 9.04614 9.74225 9.68213C9.63515 10.3181 9.70118 10.9689 9.93432 11.5751C10.1675 12.1813 10.5603 12.7237 11.077 13.1529V18L13.8462 16.783L16.6155 18V13.1529C17.0507 12.7925 17.399 12.3508 17.6376 11.8567C17.8763 11.3626 17.9998 10.8273 18.0001 10.2858ZM15.2308 15.9686L13.8462 15.3598L12.4616 15.9686V13.9179C13.3564 14.2179 14.336 14.2179 15.2308 13.9179V15.9686ZM13.8462 12.8572C13.2985 12.8572 12.7631 12.7064 12.3077 12.4238C11.8523 12.1413 11.4974 11.7397 11.2878 11.2698C11.0782 10.7999 11.0233 10.2829 11.1302 9.78413C11.2371 9.28533 11.5008 8.82715 11.8881 8.46753C12.2754 8.10792 12.7688 7.86302 13.306 7.7638C13.8431 7.66458 14.3999 7.7155 14.906 7.91012C15.412 8.10475 15.8445 8.43433 16.1488 8.85719C16.453 9.28006 16.6155 9.77721 16.6155 10.2858C16.6145 10.9675 16.3225 11.621 15.8034 12.1031C15.2842 12.5851 14.5804 12.8563 13.8462 12.8572Z" fill="#EEEEEE"/>
<path d="M3.46094 7.71387H8.30709V8.99956H3.46094V7.71387Z" fill="#EEEEEE"/>
<path d="M3.46094 3.85742H10.384V5.14312H3.46094V3.85742Z" fill="#EEEEEE"/>
<path d="M1.38462 17.9997C1.01751 17.9994 0.665536 17.8638 0.405949 17.6228C0.146363 17.3817 0.000366561 17.0549 0 16.714V1.2857C0.000366561 0.944812 0.146363 0.617988 0.405949 0.376947C0.665536 0.135906 1.01751 0.000340373 1.38462 0H12.4615C12.8286 0.000340373 13.1806 0.135906 13.4402 0.376947C13.6998 0.617988 13.8458 0.944812 13.8462 1.2857V3.85709H12.4615V1.2857H1.38462V16.714H8.30769V17.9997H1.38462Z" fill="#EEEEEE"/>
</svg>
