<svg id="Icon_ionic-ios-notifications-outline" data-name="Icon ionic-ios-notifications-outline" xmlns="http://www.w3.org/2000/svg" width="16.629" height="20.813" viewBox="0 0 16.629 20.813">
  <path id="Path_221" data-name="Path 221" d="M18.895,28.336a.674.674,0,0,0-.661.531,1.3,1.3,0,0,1-.26.567.983.983,0,0,1-.838.307,1,1,0,0,1-.838-.307,1.3,1.3,0,0,1-.26-.567.674.674,0,0,0-.661-.531h0a.678.678,0,0,0-.661.827,2.324,2.324,0,0,0,2.419,1.93,2.32,2.32,0,0,0,2.419-1.93.681.681,0,0,0-.661-.827Z" transform="translate(-8.837 -10.28)" fill="#8d8d8d"/>
  <path id="Path_222" data-name="Path 222" d="M23.195,19.344c-.8-1.056-2.377-1.675-2.377-6.4,0-4.853-2.143-6.8-4.141-7.272-.187-.047-.323-.109-.323-.307V5.21a1.276,1.276,0,0,0-1.248-1.28h-.031a1.276,1.276,0,0,0-1.248,1.28v.151c0,.192-.135.26-.323.307-2,.473-4.141,2.419-4.141,7.272,0,4.729-1.576,5.342-2.377,6.4A1.033,1.033,0,0,0,7.812,21H22.383A1.033,1.033,0,0,0,23.195,19.344Zm-2.029.3H9.035a.228.228,0,0,1-.172-.38,6.3,6.3,0,0,0,1.092-1.737A11.789,11.789,0,0,0,10.7,12.94a7.978,7.978,0,0,1,1.087-4.515A3.338,3.338,0,0,1,13.8,6.989a1.823,1.823,0,0,0,.968-.546.411.411,0,0,1,.619-.01,1.885,1.885,0,0,0,.978.557,3.338,3.338,0,0,1,2.013,1.436,7.978,7.978,0,0,1,1.087,4.515,11.789,11.789,0,0,0,.744,4.588,6.374,6.374,0,0,0,1.118,1.763A.215.215,0,0,1,21.166,19.646Z" transform="translate(-6.775 -3.93)" fill="#8d8d8d"/>
</svg>
