<svg width="39" height="37" viewBox="0 0 39 37" fill="none" xmlns="http://www.w3.org/2000/svg">
<g opacity="0.7">
<path d="M5.97507 4.31664C7.18896 4.31664 8.1767 3.34833 8.1767 2.15832C8.1767 0.968315 7.18896 0 5.97507 0C4.76118 0 3.77344 0.968315 3.77344 2.15832C3.77344 3.34833 4.76118 4.31664 5.97507 4.31664ZM5.97507 1.23333C6.49544 1.23333 6.91863 1.64819 6.91863 2.15832C6.91863 2.66845 6.49544 3.08331 5.97507 3.08331C5.4547 3.08331 5.03151 2.66845 5.03151 2.15832C5.03151 1.64819 5.4547 1.23333 5.97507 1.23333Z" fill="#EEEEEE"/>
<path d="M36.1691 8.17154C36.6034 8.17154 36.9554 7.82643 36.9554 7.40071C36.9554 6.97499 36.6034 6.62988 36.1691 6.62988C35.7348 6.62988 35.3828 6.97499 35.3828 7.40071C35.3828 7.82643 35.7348 8.17154 36.1691 8.17154Z" fill="#EEEEEE"/>
<path d="M16.0557 7.74572C16.1559 7.80353 16.2658 7.83128 16.3745 7.83128C16.5901 7.83128 16.7996 7.7229 16.9169 7.52773C17.6497 6.30828 19.0012 5.55071 20.443 5.55071C20.7907 5.55071 21.072 5.27491 21.072 4.93405C21.072 4.59319 20.7907 4.31738 20.443 4.31738C18.5577 4.31738 16.7909 5.30744 15.8334 6.90151C15.6569 7.19473 15.7565 7.5729 16.0557 7.74572Z" fill="#EEEEEE"/>
<path d="M13.8388 30.8333H13.2098C11.8221 30.8333 10.6936 29.727 10.6936 28.3667V22.2H28.1495C31.5312 22.2 34.2826 19.522 34.2826 16.2297C34.2826 12.988 31.614 10.3413 28.3031 10.2617C28.3412 9.95527 28.3602 9.64925 28.3602 9.34693C28.3602 5.0141 24.7383 1.48926 20.2865 1.48926C16.828 1.48926 13.7964 3.61813 12.6742 6.74831C12.0912 6.54235 11.4726 6.43582 10.8509 6.43582C8.40914 6.43582 6.31806 8.02203 5.69515 10.2749C2.51678 10.4942 0 13.0814 0 16.2297C0 19.522 2.75141 22.2 6.13312 22.2H9.43557V28.3667C9.43557 30.4069 11.1286 32.0666 13.2098 32.0666H13.8388C14.1865 32.0666 14.4679 31.7908 14.4679 31.45C14.4679 31.1091 14.1865 30.8333 13.8388 30.8333ZM6.13312 20.9667C3.44493 20.9667 1.25808 18.8415 1.25808 16.2297C1.25808 13.6178 3.44493 11.4932 6.12699 11.4932C6.14114 11.4945 6.1891 11.4963 6.2031 11.4963C6.51023 11.4963 6.77254 11.2789 6.82349 10.982C7.15342 9.0628 8.84773 7.6693 10.8509 7.6693C11.5211 7.6693 12.187 7.83133 12.7761 8.13781C12.9469 8.2263 13.1496 8.23293 13.3265 8.15646C13.5034 8.07938 13.6336 7.92706 13.6809 7.7433C14.4389 4.78717 17.1554 2.72274 20.2865 2.72274C24.0447 2.72274 27.1021 5.69459 27.1021 9.34708C27.1021 9.81621 27.0467 10.2967 26.9381 10.7756C26.8945 10.9689 26.9485 11.1718 27.0831 11.3199C27.2182 11.4687 27.4198 11.5452 27.6187 11.5222C27.7937 11.5042 27.97 11.4932 28.1495 11.4932C30.8376 11.4932 33.0245 13.6178 33.0245 16.2297C33.0245 18.8415 30.8376 20.9667 28.1495 20.9667H10.6936V17.7394C10.6936 16.7988 11.4744 16.0334 12.4339 16.0334H13.2098L12.2035 16.7736C11.9251 16.9777 11.8687 17.3643 12.0775 17.6366C12.201 17.7986 12.3895 17.8836 12.5812 17.8836C12.7127 17.8836 12.8448 17.8432 12.9579 17.7601L15.474 15.9101C15.6325 15.7938 15.7259 15.6108 15.7259 15.4169C15.7259 15.223 15.6325 15.04 15.474 14.9237L12.9579 13.0737C12.6808 12.8696 12.2859 12.9243 12.0775 13.1972C11.8687 13.4695 11.9251 13.856 12.2035 14.0602L13.2098 14.8001H12.4339C10.7809 14.8001 9.43557 16.119 9.43557 17.7394V20.9667H6.13312Z" fill="#EEEEEE"/>
<path d="M25.7913 25.2832H15.7267C15.379 25.2832 15.0977 25.559 15.0977 25.8999V36.3831C15.0977 36.724 15.379 36.9998 15.7267 36.9998H25.7913C26.139 36.9998 26.4203 36.724 26.4203 36.3831V25.8999C26.4203 25.559 26.139 25.2832 25.7913 25.2832ZM25.1623 26.5165V28.675L22.2487 31.9557L19.3026 30.8723C19.079 30.7905 18.8266 30.8398 18.6514 31L16.3557 33.1099V26.5165H25.1623ZM25.1623 30.5524V33.9165H17.3171L19.2263 32.1616L22.2155 33.2607C22.4618 33.351 22.7383 33.2824 22.9109 33.0878L25.1623 30.5524ZM16.3557 35.7665V35.1498H25.1623V35.7665H16.3557Z" fill="#EEEEEE"/>
<path d="M18.557 30.2171C19.4244 30.2171 20.1296 29.5258 20.1296 28.6754C20.1296 27.8251 19.4244 27.1338 18.557 27.1338C17.6895 27.1338 16.9844 27.8251 16.9844 28.6754C16.9844 29.5258 17.6895 30.2171 18.557 30.2171ZM18.557 28.3671C18.7303 28.3671 18.8715 28.5056 18.8715 28.6754C18.8715 28.8453 18.7303 28.9838 18.557 28.9838C18.3837 28.9838 18.2425 28.8453 18.2425 28.6754C18.2425 28.5056 18.3837 28.3671 18.557 28.3671Z" fill="#EEEEEE"/>
<path d="M38.3714 25.2832H28.3068C27.9591 25.2832 27.6777 25.559 27.6777 25.8999V36.3831C27.6777 36.724 27.9591 36.9998 28.3068 36.9998H38.3714C38.7191 36.9998 39.0004 36.724 39.0004 36.3831V25.8999C39.0004 25.559 38.7191 25.2832 38.3714 25.2832ZM37.7423 26.5165V28.675L34.8288 31.9557L31.8827 30.8723C31.6591 30.7905 31.4067 30.8398 31.2315 31L28.9358 33.1099V26.5165H37.7423ZM37.7423 30.5524V33.9165H29.8971L31.8064 32.1616L34.7956 33.2607C35.0419 33.351 35.319 33.2824 35.491 33.0878L37.7423 30.5524ZM28.9358 35.7665V35.1498H37.7423V35.7665H28.9358Z" fill="#EEEEEE"/>
<path d="M31.137 30.2171C32.0045 30.2171 32.7096 29.5258 32.7096 28.6754C32.7096 27.8251 32.0045 27.1338 31.137 27.1338C30.2696 27.1338 29.5645 27.8251 29.5645 28.6754C29.5645 29.5258 30.2696 30.2171 31.137 30.2171ZM31.137 28.3671C31.3103 28.3671 31.4516 28.5056 31.4516 28.6754C31.4516 28.8453 31.3103 28.9838 31.137 28.9838C30.9637 28.9838 30.8225 28.8453 30.8225 28.6754C30.8225 28.5056 30.9637 28.3671 31.137 28.3671Z" fill="#EEEEEE"/>
</g>
</svg>
