<svg width="30" height="28" viewBox="0 0 30 28" fill="none" xmlns="http://www.w3.org/2000/svg">
<path d="M23.3582 0.664001H6.64319C5.09472 0.664001 3.60968 1.27913 2.51474 2.37406C1.41981 3.46899 0.804688 4.95403 0.804688 6.5025C0.804688 8.05097 1.41981 9.53601 2.51474 10.6309C3.60968 11.7259 5.09472 12.341 6.64319 12.341H10.8952V17.058L10.6872 16.884C10.1747 16.468 9.52754 16.2542 8.86809 16.2829C8.20864 16.3117 7.58256 16.581 7.10819 17.04C6.87322 17.2694 6.68931 17.5458 6.56847 17.8512C6.44763 18.1565 6.39258 18.4839 6.40693 18.812C6.42128 19.1401 6.50469 19.4614 6.65172 19.755C6.79875 20.0487 7.00609 20.308 7.26019 20.516L10.8952 23.564V26.503C10.8952 26.7237 10.9828 26.9353 11.1389 27.0913C11.2949 27.2473 11.5065 27.335 11.7272 27.335H21.7052C21.9258 27.335 22.1375 27.2473 22.2935 27.0913C22.4495 26.9353 22.5372 26.7237 22.5372 26.503V17.158C22.5361 16.5499 22.3135 15.9631 21.9109 15.5073C21.5084 15.0515 20.9535 14.7581 20.3502 14.682L15.8832 14.125V12.341H23.3562C24.9047 12.341 26.3897 11.7259 27.4846 10.6309C28.5796 9.53601 29.1947 8.05097 29.1947 6.5025C29.1947 4.95403 28.5796 3.46899 27.4846 2.37406C26.3897 1.27913 24.9047 0.664001 23.3562 0.664001H23.3582ZM12.5582 25.673V24.009H20.8762V25.673H12.5582ZM20.1472 16.333C20.3483 16.3583 20.5332 16.456 20.6674 16.6079C20.8016 16.7598 20.8758 16.9553 20.8762 17.158V22.346H12.0292L8.32919 19.246C8.25209 19.1861 8.18893 19.1102 8.14409 19.0235C8.09926 18.9368 8.07382 18.8414 8.06954 18.7439C8.06526 18.6464 8.08224 18.5491 8.1193 18.4588C8.15637 18.3685 8.21263 18.2874 8.28419 18.221C8.46365 18.0553 8.69603 17.9585 8.94007 17.9479C9.1841 17.9373 9.42401 18.0135 9.61719 18.163L11.1912 19.484C11.3125 19.5855 11.4603 19.6504 11.6171 19.6709C11.774 19.6915 11.9334 19.6669 12.0768 19.6C12.2202 19.5332 12.3415 19.4268 12.4266 19.2934C12.5117 19.1601 12.557 19.0052 12.5572 18.847V8.205C12.5572 8.09574 12.5787 7.98755 12.6205 7.88661C12.6623 7.78567 12.7236 7.69395 12.8009 7.61669C12.8781 7.53943 12.9699 7.47815 13.0708 7.43633C13.1717 7.39452 13.2799 7.373 13.3892 7.373C13.4984 7.373 13.6066 7.39452 13.7076 7.43633C13.8085 7.47815 13.9002 7.53943 13.9775 7.61669C14.0548 7.69395 14.116 7.78567 14.1579 7.88661C14.1997 7.98755 14.2212 8.09574 14.2212 8.205V14.864C14.2213 15.0667 14.2955 15.2624 14.4297 15.4143C14.564 15.5662 14.749 15.6639 14.9502 15.689L20.1472 16.333ZM23.3582 10.678H15.8852V8.205C15.9056 7.86468 15.8563 7.52378 15.7401 7.20325C15.6239 6.88272 15.4434 6.58933 15.2097 6.34113C14.976 6.09293 14.6939 5.89516 14.3809 5.75998C14.0679 5.6248 13.7306 5.55507 13.3897 5.55507C13.0488 5.55507 12.7114 5.6248 12.3984 5.75998C12.0854 5.89516 11.8034 6.09293 11.5697 6.34113C11.3359 6.58933 11.1554 6.88272 11.0393 7.20325C10.9231 7.52378 10.8737 7.86468 10.8942 8.205V10.677H6.64319C5.53591 10.677 4.47398 10.2371 3.69102 9.45417C2.90805 8.67121 2.46819 7.60928 2.46819 6.502C2.46819 5.39472 2.90805 4.3328 3.69102 3.54983C4.47398 2.76687 5.53591 2.327 6.64319 2.327H23.3582C24.4655 2.327 25.5274 2.76687 26.3104 3.54983C27.0933 4.3328 27.5332 5.39472 27.5332 6.502C27.5332 7.60928 27.0933 8.67121 26.3104 9.45417C25.5274 10.2371 24.4655 10.677 23.3582 10.677V10.678Z" fill="#968C9C"/>
<path d="M22.7258 4.23401L19.9868 6.97301L18.9119 5.89801C18.8356 5.8166 18.7438 5.75137 18.6418 5.70617C18.5398 5.66098 18.4298 5.63676 18.3182 5.63494C18.2067 5.63312 18.0959 5.65375 17.9925 5.69559C17.8891 5.73744 17.7952 5.79964 17.7164 5.87851C17.6375 5.95739 17.5753 6.05132 17.5334 6.15471C17.4916 6.25811 17.4709 6.36886 17.4728 6.48039C17.4746 6.59192 17.4988 6.70194 17.544 6.80392C17.5892 6.9059 17.6545 6.99775 17.7359 7.07401L19.3999 8.73801C19.5559 8.89385 19.7673 8.98138 19.9878 8.98138C20.2083 8.98138 20.4199 8.89385 20.5759 8.73801L23.9029 5.41101C24.0505 5.2534 24.1311 5.04456 24.1276 4.82862C24.124 4.61269 24.0367 4.40659 23.884 4.25388C23.7313 4.10117 23.5252 4.01383 23.3092 4.0103C23.0933 4.00678 22.8845 4.08736 22.7269 4.23501L22.7258 4.23401Z" fill="#968C9C"/>
</svg>
