<svg width="23" height="24" viewBox="0 0 23 24" fill="none" xmlns="http://www.w3.org/2000/svg">
<path d="M11.4828 10.8C11.1782 10.8 10.8862 10.9264 10.6708 11.1515C10.4555 11.3765 10.3345 11.6817 10.3345 12C10.3345 12.3183 10.4555 12.6235 10.6708 12.8485C10.8862 13.0736 11.1782 13.2 11.4828 13.2C11.7873 13.2 12.0794 13.0736 12.2947 12.8485C12.5101 12.6235 12.6311 12.3183 12.6311 12C12.6311 11.6817 12.5101 11.3765 12.2947 11.1515C12.0794 10.9264 11.7873 10.8 11.4828 10.8ZM12.0569 0C17.2242 0 17.3505 4.284 14.6405 5.7C13.5037 6.288 12.9985 7.548 12.7803 8.664C13.3315 8.904 13.8138 9.276 14.1812 9.756C18.4299 7.356 23 8.304 23 12.6C23 18 18.9006 18.12 17.5457 15.276C16.9715 14.088 15.7544 13.56 14.6865 13.332C14.4568 13.908 14.1008 14.4 13.6415 14.808C15.9266 19.236 15.0195 24 10.9086 24C5.74139 24 5.63804 19.704 8.34798 18.288C9.47329 17.7 9.97853 16.452 10.2082 15.348C9.64553 15.108 9.15177 14.724 8.78432 14.244C4.54718 16.62 0 15.684 0 11.4C0 6 4.08787 5.868 5.44284 8.712C6.01697 9.9 7.22267 10.416 8.29056 10.644C8.50874 10.068 8.87619 9.564 9.34698 9.18C7.06191 4.752 7.96905 0 12.0569 0Z" fill="#F9F9F9"/>
</svg>
