<svg width="18" height="18" viewBox="0 0 18 18" fill="none" xmlns="http://www.w3.org/2000/svg">
<path d="M2.25092 9.8034L3.04228 10.5138L4.05836 9.35939L5.07445 10.5138L5.86581 9.8034L4.92356 8.73285H5.99954V7.66354H4.58778V6.41602H3.52895V7.66354H2.11719V8.73285H3.19316L2.25092 9.8034Z" fill="#EEEEEE"/>
<path d="M7.19232 9.8034L7.98369 10.5138L8.99977 9.35939L10.0159 10.5138L10.8072 9.8034L9.86497 8.73285H10.9409V7.66354H9.52918V6.41602H8.47036V7.66354H7.05859V8.73285H8.13457L7.19232 9.8034Z" fill="#EEEEEE"/>
<path d="M5.99966 11.7627V13.0102H4.58789V14.0795H5.66387L4.72162 15.1501L5.51298 15.8605L6.52907 14.7061L7.54515 15.8605L8.33651 15.1501L7.39427 14.0795H8.47024V13.0102H7.05848V11.7627H5.99966Z" fill="#EEEEEE"/>
<path d="M10.9411 11.7627V13.0102H9.5293V14.0795H10.6053L9.66303 15.1501L10.4544 15.8605L11.4705 14.7061L12.4866 15.8605L13.2779 15.1501L12.3357 14.0795H13.4116V13.0102H11.9999V11.7627H10.9411Z" fill="#EEEEEE"/>
<path d="M12.1337 9.8034L12.9251 10.5138L13.9412 9.35939L14.9573 10.5138L15.7486 9.8034L14.8064 8.73285H15.8824V7.66354H14.4706V6.41602H13.4118V7.66354H12V8.73285H13.076L12.1337 9.8034Z" fill="#EEEEEE"/>
<path d="M18 3.20792V0H16.9412V1.06931H0V2.13861H3.52941V4.27723H0V18H18V4.27723H14.6471V2.13861H16.9412V3.20792H18ZM16.9412 16.9307H1.05882V5.34653H16.9412V16.9307ZM13.5882 4.27723H4.58824V2.13861H13.5882V4.27723Z" fill="#EEEEEE"/>
</svg>
