<svg width="43" height="39" viewBox="0 0 43 39" fill="none" xmlns="http://www.w3.org/2000/svg">
<path d="M34.8606 19.0106C39.2676 15.0487 39.6286 8.26448 35.6667 3.85748C32.033 -0.184457 25.951 -0.871116 21.5076 2.25903C16.6639 -1.15942 9.96608 -0.00395113 6.54763 4.83973C3.41092 9.28426 4.09479 15.3726 8.13934 19.0105C3.11389 21.6596 -0.0226426 26.8823 0.000123095 32.5631V37.1702C0.000123095 38.0184 0.687682 38.7059 1.53586 38.7059H41.4642C42.3124 38.7059 42.9999 38.0184 42.9999 37.1702V32.5631C43.0226 26.8823 39.8861 21.6596 34.8606 19.0106ZM27.6428 3.38471C31.8775 3.38003 35.3143 6.80919 35.3191 11.044C35.3224 14.0641 33.5526 16.8049 30.7986 18.0445C30.6804 18.0983 30.5622 18.1474 30.4424 18.1981C30.0634 18.351 29.6725 18.4727 29.2737 18.5621C29.1969 18.579 29.1201 18.5882 29.0418 18.6036C28.5962 18.689 28.1441 18.7347 27.6904 18.7403C27.4861 18.7403 27.2803 18.7249 27.076 18.7065C26.9993 18.7065 26.9224 18.7065 26.8457 18.6911C25.9729 18.5884 25.1238 18.3381 24.3348 17.951C24.3057 17.9371 24.2718 17.9386 24.2427 17.9264C24.0891 17.8527 23.9356 17.7882 23.7989 17.7052C23.8112 17.6898 23.8188 17.673 23.8311 17.6576C24.5353 16.7527 25.0905 15.7413 25.4758 14.6614L25.5234 14.5324C25.6986 14.0166 25.8346 13.4884 25.9304 12.9521C25.9442 12.8738 25.9549 12.7985 25.9673 12.7141C26.0561 12.1682 26.1028 11.6163 26.107 11.0632C26.1026 10.5112 26.0559 9.9603 25.9673 9.41536C25.9549 9.33555 25.9442 9.26176 25.9304 9.17736C25.8346 8.64115 25.6986 8.11286 25.5234 7.59708L25.4758 7.46804C25.0905 6.38816 24.5352 5.37675 23.8311 4.47188C23.8188 4.4565 23.8111 4.43967 23.7989 4.42428C24.9656 3.74365 26.292 3.3848 27.6428 3.38471ZM7.67863 11.0633C7.66774 6.83357 11.0877 3.39587 15.3175 3.38498C17.3001 3.37985 19.2076 4.1439 20.6385 5.51631C20.7276 5.60234 20.8151 5.68827 20.9011 5.77735C21.1648 6.05369 21.408 6.34884 21.629 6.66036C21.6966 6.75556 21.7581 6.85697 21.821 6.95523C22.0356 7.28556 22.224 7.63217 22.3845 7.99183C22.4229 8.07939 22.4521 8.16847 22.4858 8.25593C22.6477 8.65375 22.7751 9.06479 22.8667 9.48447C22.8775 9.53054 22.8806 9.57661 22.8898 9.62421C23.0843 10.5778 23.0843 11.5608 22.8898 12.5144C22.8806 12.562 22.8774 12.608 22.8667 12.6541C22.7752 13.0738 22.6478 13.4848 22.4858 13.8826C22.4521 13.9702 22.4229 14.0593 22.3845 14.1467C22.2238 14.5059 22.0354 14.8519 21.821 15.1818C21.758 15.2801 21.6966 15.3815 21.629 15.4767C21.4081 15.7883 21.1648 16.0834 20.9011 16.3597C20.815 16.4488 20.7275 16.5348 20.6385 16.6207C20.0167 17.2133 19.2998 17.6971 18.5177 18.052C18.3933 18.1088 18.2674 18.1611 18.1399 18.2056C17.7698 18.3525 17.3889 18.4706 17.0005 18.5588C16.9038 18.5803 16.8039 18.5925 16.7056 18.6094C16.2886 18.6871 15.8658 18.7297 15.4417 18.7369H15.2728C14.8487 18.7298 14.4259 18.6871 14.0089 18.6094C13.9107 18.5925 13.8108 18.5803 13.714 18.5588C13.3257 18.4706 12.9447 18.3525 12.5746 18.2056C12.4471 18.1549 12.3212 18.1028 12.1968 18.052C9.44931 16.8115 7.68214 14.0778 7.67863 11.0633ZM27.6428 35.6346H3.07151V32.5632C3.04901 27.3592 6.32781 22.7129 11.2383 20.9901C13.8745 22.0876 16.8397 22.0876 19.4759 20.9901C19.9886 21.1775 20.4883 21.3986 20.9717 21.652C21.2911 21.8163 21.586 22.0037 21.8931 22.1926C22.0928 22.3169 22.2954 22.4383 22.4875 22.575C22.7839 22.7854 23.0634 23.0142 23.3382 23.2491C23.5149 23.4027 23.6899 23.5562 23.8557 23.7099C24.1091 23.9494 24.3471 24.2028 24.576 24.4624C24.7403 24.6497 24.9 24.8401 25.0521 25.0367C25.2533 25.2947 25.4452 25.5589 25.6234 25.8307C25.777 26.061 25.9136 26.3005 26.0487 26.5402C26.2023 26.8043 26.3436 27.0685 26.4725 27.3434C26.6016 27.6183 26.7152 27.9192 26.8257 28.2126C26.9224 28.4675 27.0254 28.7209 27.1052 28.9804C27.2127 29.3367 27.288 29.7052 27.3632 30.0738C27.4093 30.2918 27.4692 30.5054 27.5029 30.7264C27.5939 31.3345 27.6406 31.9483 27.6427 32.5632V35.6346H27.6428ZM39.9285 35.6346H30.7142V32.5632C30.7142 32.0825 30.6866 31.6064 30.6436 31.135C30.6313 30.9967 30.6098 30.8601 30.5945 30.7219C30.553 30.3824 30.5054 30.0462 30.4409 29.7129C30.4132 29.5706 30.3841 29.4277 30.3533 29.2844C30.2796 28.9424 30.1941 28.6036 30.0969 28.2677C30.0646 28.1572 30.0354 28.045 30.0017 27.9361C29.5716 26.5614 28.9485 25.2549 28.1512 24.0554L28.0912 23.9678C27.8271 23.5757 27.545 23.1964 27.245 22.8299L27.2343 22.816C26.9272 22.4352 26.5939 22.0651 26.2438 21.7149C26.2638 21.7149 26.2853 21.7149 26.3068 21.7149C26.7401 21.7719 27.1766 21.8027 27.6137 21.8071H27.6982C28.1027 21.8036 28.5067 21.7774 28.9084 21.7288C29.0342 21.7134 29.1587 21.6904 29.2846 21.6704C29.6112 21.6203 29.9337 21.5552 30.2521 21.4754C30.3427 21.4524 30.4348 21.4309 30.527 21.4048C30.9448 21.2911 31.3551 21.1515 31.7555 20.9871C36.6697 22.7082 39.9514 27.3565 39.9286 32.5633V35.6346H39.9285Z" fill="#EEEEEE"/>
</svg>
