<svg xmlns="http://www.w3.org/2000/svg" width="32.027" height="31.93" viewBox="0 0 32.027 31.93">
  <g id="Group_785" data-name="Group 785" transform="translate(-585.29 -356.466)">
    <path id="Path_260" data-name="Path 260" d="M340.567,6.123c.067-1.354,1.666-1.916,1.666-3.352A3.17,3.17,0,0,0,340.567,0c.029,1.368-2.427,2.449-2.427,3.659C338.14,5.2,339.456,5.639,340.567,6.123Z" transform="translate(273.027 356.955)" fill="#eee"/>
    <path id="Path_261" data-name="Path 261" d="M396.842,66.353c.066-2.207,1.629-3.123,1.629-5.463a6.215,6.215,0,0,0-1.629-4.513c.029,2.23-2.372,3.991-2.372,5.962C394.47,64.851,395.757,65.564,396.842,66.353Z" transform="translate(218.843 304.083)" fill="#eee"/>
    <path id="Path_262" data-name="Path 262" d="M422.647,225.413h2V233.4h-2Z" transform="translate(192.668 147.018)" fill="#eee"/>
    <path id="Path_263" data-name="Path 263" d="M288.938,225.413h-3.761l3.761,3.75Z" transform="translate(320.373 147.018)" fill="#eee"/>
    <path id="Path_264" data-name="Path 264" d="M366.294,231.158l2,2v-7.741h-2Z" transform="translate(245.018 147.018)" fill="#eee"/>
    <path id="Path_265" data-name="Path 265" d="M0,1.411,14.6,15.965H0v7.983H22.6l8.007,7.983,1.415-1.411L1.415,0ZM2,21.952V17.961H16.6l4,3.991H2Z" transform="translate(585.29 356.466)" fill="#eee"/>
  </g>
</svg>
