<svg width="11" height="6" viewBox="0 0 11 6" fill="none" xmlns="http://www.w3.org/2000/svg">
<path d="M10.0888 0.286028C10.126 0.248837 10.1701 0.219334 10.2187 0.199204C10.2672 0.179075 10.3193 0.168714 10.3718 0.168714C10.4244 0.168714 10.4765 0.179075 10.525 0.199204C10.5736 0.219334 10.6177 0.248837 10.6548 0.286028C10.692 0.322596 10.7215 0.366182 10.7416 0.414252C10.7617 0.462322 10.7721 0.513915 10.7721 0.566028C10.7721 0.618141 10.7617 0.669733 10.7416 0.717803C10.7215 0.765873 10.692 0.809461 10.6548 0.846028L6.08484 5.37103C6.04769 5.40822 6.00357 5.43772 5.95501 5.45785C5.90646 5.47798 5.8544 5.48834 5.80184 5.48834C5.74927 5.48834 5.69722 5.47798 5.64866 5.45785C5.6001 5.43772 5.55599 5.40822 5.51884 5.37103L0.948838 0.846028C0.911831 0.809392 0.882453 0.765782 0.862404 0.717722C0.842354 0.669662 0.832031 0.618103 0.832031 0.566028C0.832031 0.513953 0.842354 0.462395 0.862404 0.414334C0.882453 0.366274 0.911831 0.322664 0.948838 0.286028C0.985987 0.248837 1.0301 0.219334 1.07866 0.199204C1.12722 0.179075 1.17927 0.168714 1.23184 0.168714C1.2844 0.168714 1.33646 0.179075 1.38501 0.199204C1.43357 0.219334 1.47769 0.248837 1.51484 0.286028L5.80184 4.41303L10.0888 0.286028Z" fill="#EFECF1"/>
</svg>
