<svg width="27" height="20" viewBox="0 0 27 20" fill="none" xmlns="http://www.w3.org/2000/svg">
<path d="M26.1035 1.81598C24.5598 1.17753 22.9029 0.857787 21.2325 0.875979C16.0785 0.875979 10.9245 3.48498 5.76949 3.48498C4.45524 3.49541 3.14734 3.30177 1.89249 2.91098C1.75251 2.86621 1.60646 2.84328 1.45949 2.84298C1.28315 2.8406 1.10808 2.87326 0.944461 2.93906C0.780838 3.00487 0.631912 3.10252 0.506325 3.22634C0.380738 3.35016 0.28099 3.49769 0.212869 3.66036C0.144748 3.82303 0.10961 3.99762 0.109493 4.17398V17.45C0.106026 17.71 0.178808 17.9654 0.31885 18.1845C0.458891 18.4036 0.660055 18.5769 0.897493 18.683C2.44124 19.3228 4.09851 19.6435 5.76949 19.626C10.9235 19.626 16.0785 17.017 21.2325 17.017C22.5466 17.0059 23.8545 17.1989 25.1095 17.589C25.2495 17.6337 25.3955 17.6567 25.5425 17.657C25.7188 17.6594 25.8939 17.6267 26.0575 17.5609C26.2211 17.4951 26.3701 17.3974 26.4957 17.2736C26.6212 17.1498 26.721 17.0023 26.7891 16.8396C26.8572 16.6769 26.8924 16.5023 26.8925 16.326V3.04898C26.8957 2.78887 26.8228 2.53349 26.6826 2.31438C26.5423 2.09527 26.341 1.922 26.1035 1.81598ZM13.5035 14.267C11.6545 14.267 10.1555 12.467 10.1555 10.25C10.1555 8.03298 11.6555 6.23298 13.5035 6.23298C15.3515 6.23298 16.8515 8.03298 16.8515 10.25C16.8515 12.467 15.3495 14.267 13.5005 14.267H13.5035Z" fill="#968C9C"/>
</svg>
