<svg width="15" height="19" viewBox="0 0 15 19" fill="none" xmlns="http://www.w3.org/2000/svg">
<path d="M13.942 0.5H0.449997C0.33065 0.5 0.216197 0.547414 0.131805 0.631805C0.047414 0.716197 0 0.83065 0 0.949997V17.7C0.00565263 17.8152 0.0554391 17.9239 0.139038 18.0034C0.222637 18.0829 0.333631 18.1271 0.448997 18.127H13.942C14.057 18.1272 14.1678 18.0832 14.2513 18.0041C14.3348 17.925 14.3848 17.8169 14.391 17.702C14.391 17.694 14.391 11.156 14.391 11.156C14.391 11.0367 14.3436 10.9222 14.2592 10.8378C14.1748 10.7534 14.0603 10.706 13.941 10.706C13.8217 10.706 13.7072 10.7534 13.6228 10.8378C13.5384 10.9222 13.491 11.0367 13.491 11.156V15.204H10.343V12.281C10.343 12.1617 10.2956 12.0472 10.2112 11.9628C10.1268 11.8784 10.0123 11.831 9.893 11.831H4.493C4.37365 11.831 4.2592 11.8784 4.1748 11.9628C4.09041 12.0472 4.043 12.1617 4.043 12.281V15.204H0.900002V3.2H13.493V7.113C13.493 7.23235 13.5404 7.34681 13.6248 7.4312C13.7092 7.51559 13.8237 7.563 13.943 7.563C14.0623 7.563 14.1768 7.51559 14.2612 7.4312C14.3456 7.34681 14.393 7.23235 14.393 7.113V0.949997C14.393 0.83065 14.3456 0.716197 14.2612 0.631805C14.1768 0.547414 14.0623 0.5 13.943 0.5H13.942ZM10.342 16.107H13.49V17.231H10.342V16.107ZM7.642 12.734H9.442V17.234H7.642V12.734ZM4.942 12.734H6.742V17.234H4.942V12.734ZM4.042 16.107V17.231H0.900002V16.107H4.042ZM13.487 2.299H0.900002V1.399H13.493L13.487 2.299Z" fill="#EEEEEE"/>
<path d="M13.5902 10.075C13.8299 10.075 14.0242 9.68597 14.0242 9.20604C14.0242 8.7261 13.8299 8.33704 13.5902 8.33704C13.3506 8.33704 13.1562 8.7261 13.1562 9.20604C13.1562 9.68597 13.3506 10.075 13.5902 10.075Z" fill="#EEEEEE"/>
<path d="M8.09375 8.01099H6.29376C6.17441 8.01099 6.05995 8.0584 5.97556 8.14279C5.89116 8.22718 5.84375 8.34165 5.84375 8.461V10.261C5.84375 10.3803 5.89116 10.4948 5.97556 10.5792C6.05995 10.6636 6.17441 10.711 6.29376 10.711H8.09375C8.2131 10.711 8.32757 10.6636 8.41196 10.5792C8.49635 10.4948 8.54376 10.3803 8.54376 10.261V8.461C8.54376 8.34165 8.49635 8.22718 8.41196 8.14279C8.32757 8.0584 8.2131 8.01099 8.09375 8.01099ZM7.64375 9.81097H6.74376V8.91098H7.64375V9.81097Z" fill="#EEEEEE"/>
<path d="M8.54765 4.63799C8.54765 4.51864 8.50024 4.40419 8.41585 4.31979C8.33146 4.2354 8.217 4.18799 8.09766 4.18799H6.29765C6.17831 4.18799 6.06385 4.2354 5.97946 4.31979C5.89507 4.40419 5.84766 4.51864 5.84766 4.63799V6.43799C5.84766 6.55734 5.89507 6.67179 5.97946 6.75618C6.06385 6.84057 6.17831 6.88799 6.29765 6.88799H8.09766C8.217 6.88799 8.33146 6.84057 8.41585 6.75618C8.50024 6.67179 8.54765 6.55734 8.54765 6.43799V4.63799ZM7.64766 5.98698H6.74765V5.08699H7.64766V5.98698Z" fill="#EEEEEE"/>
<path d="M4.27344 8.01099H2.47345C2.3541 8.01099 2.23963 8.0584 2.15524 8.14279C2.07085 8.22718 2.02344 8.34165 2.02344 8.461V10.261C2.02344 10.3803 2.07085 10.4948 2.15524 10.5792C2.23963 10.6636 2.3541 10.711 2.47345 10.711H4.27344C4.39278 10.711 4.50725 10.6636 4.59164 10.5792C4.67604 10.4948 4.72345 10.3803 4.72345 10.261V8.461C4.72345 8.34165 4.67604 8.22718 4.59164 8.14279C4.50725 8.0584 4.39278 8.01099 4.27344 8.01099ZM3.82344 9.81097H2.92345V8.91098H3.82344V9.81097Z" fill="#EEEEEE"/>
<path d="M4.72343 4.63799C4.72343 4.51864 4.67602 4.40419 4.59163 4.31979C4.50724 4.2354 4.39278 4.18799 4.27344 4.18799H2.47343C2.35409 4.18799 2.23963 4.2354 2.15524 4.31979C2.07085 4.40419 2.02344 4.51864 2.02344 4.63799V6.43799C2.02344 6.55734 2.07085 6.67179 2.15524 6.75618C2.23963 6.84057 2.35409 6.88799 2.47343 6.88799H4.27344C4.39278 6.88799 4.50724 6.84057 4.59163 6.75618C4.67602 6.67179 4.72343 6.55734 4.72343 6.43799V4.63799ZM3.82344 5.98698H2.92343V5.08699H3.82344V5.98698Z" fill="#EEEEEE"/>
<path d="M11.918 8.01099H10.118C9.99863 8.01099 9.88417 8.0584 9.79977 8.14279C9.71538 8.22718 9.66797 8.34165 9.66797 8.461V10.261C9.66797 10.3803 9.71538 10.4948 9.79977 10.5792C9.88417 10.6636 9.99863 10.711 10.118 10.711H11.918C12.0373 10.711 12.1518 10.6636 12.2362 10.5792C12.3206 10.4948 12.368 10.3803 12.368 10.261V8.461C12.368 8.34165 12.3206 8.22718 12.2362 8.14279C12.1518 8.0584 12.0373 8.01099 11.918 8.01099ZM11.468 9.81097H10.568V8.91098H11.468V9.81097Z" fill="#EEEEEE"/>
<path d="M12.368 4.63799C12.368 4.51864 12.3206 4.40419 12.2362 4.31979C12.1518 4.2354 12.0373 4.18799 11.918 4.18799H10.118C9.99863 4.18799 9.88417 4.2354 9.79977 4.31979C9.71538 4.40419 9.66797 4.51864 9.66797 4.63799V6.43799C9.66797 6.55734 9.71538 6.67179 9.79977 6.75618C9.88417 6.84057 9.99863 6.88799 10.118 6.88799H11.918C12.0373 6.88799 12.1518 6.84057 12.2362 6.75618C12.3206 6.67179 12.368 6.55734 12.368 6.43799V4.63799ZM11.468 5.98698H10.568V5.08699H11.468V5.98698Z" fill="#EEEEEE"/>
</svg>
