<svg width="14" height="14" viewBox="0 0 14 14" fill="none" xmlns="http://www.w3.org/2000/svg">
<path d="M13.282 7.141C13.282 8.35557 12.9218 9.54288 12.2471 10.5528C11.5723 11.5626 10.6132 12.3497 9.49106 12.8145C8.36894 13.2793 7.13419 13.401 5.94295 13.164C4.75172 12.9271 3.65749 12.3422 2.79866 11.4833C1.93983 10.6245 1.35495 9.53029 1.118 8.33905C0.881049 7.14781 1.00266 5.91306 1.46746 4.79094C1.93226 3.66882 2.71936 2.70973 3.72925 2.03495C4.73913 1.36016 5.92643 1 7.141 1C8.7697 1 10.3317 1.647 11.4833 2.79866C12.635 3.95032 13.282 5.51231 13.282 7.141V7.141Z" stroke="#EEEEEE" stroke-linecap="round" stroke-linejoin="round"/>
<path d="M7.14062 9.59699V7.14099" stroke="#EEEEEE" stroke-linecap="round" stroke-linejoin="round"/>
</svg>
