<svg width="18" height="18" viewBox="0 0 18 18" fill="none" xmlns="http://www.w3.org/2000/svg">
<path d="M17.7992 3.53813L13.6454 0.163134C13.5147 0.057841 13.3379 -0.000834774 13.1538 8.97536e-06H2.07692C0.929855 8.97536e-06 0 0.755516 0 1.68751V16.3125C0 17.2445 0.929855 18 2.07692 18H15.9231C17.0701 18 18 17.2445 18 16.3125V3.93751C18.0011 3.78799 17.9288 3.6443 17.7992 3.53813ZM16.6154 16.3125C16.6154 16.6232 16.3054 16.875 15.9231 16.875H2.07692C1.69455 16.875 1.38461 16.6232 1.38461 16.3125V1.68751C1.38461 1.37683 1.69455 1.12501 2.07692 1.12501H12.4615V3.37501C12.4615 3.99632 13.0814 4.50001 13.8461 4.50001H16.6154V16.3125Z" fill="#EEEEEE"/>
<path d="M5.53786 6.1875C4.39079 6.1875 3.46094 6.94301 3.46094 7.875C3.46094 8.80699 4.39079 9.5625 5.53786 9.5625C6.68493 9.5625 7.61478 8.80699 7.61478 7.875C7.61478 6.94304 6.68493 6.1875 5.53786 6.1875ZM5.53786 8.4375C5.15549 8.4375 4.84555 8.18567 4.84555 7.875C4.84555 7.56432 5.15549 7.3125 5.53786 7.3125C5.92023 7.3125 6.23017 7.56432 6.23017 7.875C6.23017 8.18567 5.92023 8.4375 5.53786 8.4375Z" fill="#EEEEEE"/>
<path d="M5.53786 11.8125C4.39079 11.8125 3.46094 12.568 3.46094 13.5C3.46094 14.432 4.39079 15.1875 5.53786 15.1875C6.68493 15.1875 7.61478 14.432 7.61478 13.5C7.61478 12.568 6.68493 11.8125 5.53786 11.8125ZM5.53786 14.0625C5.15549 14.0625 4.84555 13.8107 4.84555 13.5C4.84555 13.1893 5.15549 12.9375 5.53786 12.9375C5.92023 12.9375 6.23017 13.1893 6.23017 13.5C6.23017 13.8107 5.92023 14.0625 5.53786 14.0625Z" fill="#EEEEEE"/>
<path d="M14.5385 6.1875H9V7.3125H14.5385V6.1875Z" fill="#EEEEEE"/>
<path d="M11.7692 8.4375H9V9.5625H11.7692V8.4375Z" fill="#EEEEEE"/>
<path d="M14.5385 11.8125H9V12.9375H14.5385V11.8125Z" fill="#EEEEEE"/>
<path d="M11.7692 14.0625H9V15.1875H11.7692V14.0625Z" fill="#EEEEEE"/>
</svg>
