<svg xmlns="http://www.w3.org/2000/svg" width="13.618" height="13.618" viewBox="0 0 13.618 13.618">
  <g id="Group_785" data-name="Group 785" transform="translate(-269.5 -285.5)">
    <g id="Icon_feather-copy" data-name="Icon feather-copy" transform="translate(267 283)">
      <path id="Path_398" data-name="Path 398" d="M14.762,13.5H20.44A1.262,1.262,0,0,1,21.7,14.762V20.44A1.262,1.262,0,0,1,20.44,21.7H14.762A1.262,1.262,0,0,1,13.5,20.44V14.762A1.262,1.262,0,0,1,14.762,13.5Z" transform="translate(-6.084 -6.084)" fill="none" stroke="#eee" stroke-linecap="round" stroke-linejoin="round" stroke-width="1"/>
      <path id="Path_399" data-name="Path 399" d="M4.893,11.2H4.262A1.262,1.262,0,0,1,3,9.94V4.262A1.262,1.262,0,0,1,4.262,3H9.94A1.262,1.262,0,0,1,11.2,4.262v.631" fill="none" stroke="#eee" stroke-linecap="round" stroke-linejoin="round" stroke-width="1"/>
    </g>
  </g>
</svg>
