<svg xmlns="http://www.w3.org/2000/svg" width="38" height="38" viewBox="0 0 38 38">
  <g id="Group_653" data-name="Group 653" transform="translate(-1679 129)">
    <circle id="Ellipse_43" data-name="Ellipse 43" cx="19" cy="19" r="19" transform="translate(1679 -129)" fill="#fff"/>
    <g id="Group_460" data-name="Group 460" transform="translate(-22.854 -5.979)">
      <path id="Path_214" data-name="Path 214" d="M112.049,120H96.518a.518.518,0,0,0-.518.518s0,19.277,0,19.285a.517.517,0,0,0,.516.491h15.531a.517.517,0,0,0,.516-.489c0-.009,0-7.535,0-7.535a.518.518,0,0,0-1.035,0v4.659h-3.624v-3.365a.518.518,0,0,0-.518-.518h-6.212a.518.518,0,0,0-.518.518v3.365H97.035V123.106h14.5v4.5a.518.518,0,0,0,1.035,0v-7.093a.518.518,0,0,0-.518-.518Zm-4.142,17.964h3.624v1.294h-3.624Zm-3.106-3.883h2.071v5.177H104.8Zm-3.106,0h2.071v5.177h-2.071Zm-1.035,3.883v1.294H97.035v-1.294Zm10.872-15.894h-14.5v-1.035h14.5Z" transform="translate(1615.854 -234.021)" fill="#6a6ff9"/>
      <ellipse id="Ellipse_42" data-name="Ellipse 42" cx="0.5" cy="1" rx="0.5" ry="1" transform="translate(1727 -105)" fill="#6a6ff9"/>
      <path id="Path_215" data-name="Path 215" d="M228.589,287h-2.071a.518.518,0,0,0-.518.518v2.071a.518.518,0,0,0,.518.518h2.071a.518.518,0,0,0,.518-.518v-2.071A.518.518,0,0,0,228.589,287Zm-.518,2.071h-1.035v-1.035h1.035Z" transform="translate(1492.584 -392.375)" fill="#6a6ff9"/>
      <path id="Path_216" data-name="Path 216" d="M229.106,202.518a.518.518,0,0,0-.518-.518h-2.071a.518.518,0,0,0-.518.518v2.071a.518.518,0,0,0,.518.518h2.071a.518.518,0,0,0,.518-.518Zm-1.035,1.553h-1.035v-1.035h1.035Z" transform="translate(1492.584 -311.776)" fill="#6a6ff9"/>
      <path id="Path_217" data-name="Path 217" d="M143.589,287h-2.071a.518.518,0,0,0-.518.518v2.071a.518.518,0,0,0,.518.518h2.071a.518.518,0,0,0,.518-.518v-2.071A.518.518,0,0,0,143.589,287Zm-.518,2.071h-1.035v-1.035h1.035Z" transform="translate(1573.183 -392.375)" fill="#6a6ff9"/>
      <path id="Path_218" data-name="Path 218" d="M144.106,202.518a.518.518,0,0,0-.518-.518h-2.071a.518.518,0,0,0-.518.518v2.071a.518.518,0,0,0,.518.518h2.071a.518.518,0,0,0,.518-.518Zm-1.035,1.553h-1.035v-1.035h1.035Z" transform="translate(1573.183 -311.776)" fill="#6a6ff9"/>
      <path id="Path_219" data-name="Path 219" d="M313.589,287h-2.071a.518.518,0,0,0-.518.518v2.071a.518.518,0,0,0,.518.518h2.071a.518.518,0,0,0,.518-.518v-2.071A.518.518,0,0,0,313.589,287Zm-.518,2.071h-1.035v-1.035h1.035Z" transform="translate(1411.984 -392.375)" fill="#6a6ff9"/>
      <path id="Path_220" data-name="Path 220" d="M314.106,202.518a.518.518,0,0,0-.518-.518h-2.071a.518.518,0,0,0-.518.518v2.071a.518.518,0,0,0,.518.518h2.071a.518.518,0,0,0,.518-.518Zm-1.035,1.553h-1.035v-1.035h1.035Z" transform="translate(1411.984 -311.776)" fill="#6a6ff9"/>
    </g>
  </g>
</svg>
