<svg xmlns="http://www.w3.org/2000/svg" width="17.676" height="11.784" viewBox="0 0 17.676 11.784">
  <path id="Icon_awesome-eye" data-name="icon-awesome-eye-main" d="M17.569,9.944A9.842,9.842,0,0,0,8.838,4.5,9.844,9.844,0,0,0,.107,9.944a.993.993,0,0,0,0,.9,9.842,9.842,0,0,0,8.731,5.444,9.844,9.844,0,0,0,8.731-5.444A.993.993,0,0,0,17.569,9.944ZM8.838,14.811a4.419,4.419,0,1,1,4.419-4.419A4.419,4.419,0,0,1,8.838,14.811Zm0-7.365a2.925,2.925,0,0,0-.777.116A1.468,1.468,0,0,1,6.008,9.615a2.939,2.939,0,1,0,2.83-2.169Z" transform="translate(0 -4.5)" fill="#55C779"/>
</svg>
