<svg xmlns="http://www.w3.org/2000/svg" width="15.938" height="17" viewBox="0 0 15.938 17">
  <path id="Icon_metro-calendar" data-name="Icon metro-calendar" d="M7.883,8.3h2.125v2.125H7.883Zm3.188,0H13.2v2.125H11.071Zm3.188,0h2.125v2.125H14.258ZM4.7,14.678H6.821V16.8H4.7Zm3.188,0h2.125V16.8H7.883Zm3.188,0H13.2V16.8H11.071ZM7.883,11.491h2.125v2.125H7.883Zm3.188,0H13.2v2.125H11.071Zm3.188,0h2.125v2.125H14.258Zm-9.563,0H6.821v2.125H4.7ZM16.383,1.928V2.991H14.258V1.928H6.821V2.991H4.7V1.928H2.571v17H18.508v-17H16.383Zm1.063,15.938H3.633V6.178H17.446Z" transform="translate(-2.571 -1.928)" fill="#fff"/>
</svg>
