<svg xmlns="http://www.w3.org/2000/svg" width="19.416" height="11.649" viewBox="0 0 19.416 11.649">
  <path id="Icon_awesome-money-bill-alt" data-name="Icon awesome-money-bill-alt" d="M10.679,11.3h-.485V8.626a.243.243,0,0,0-.243-.243H9.539a.727.727,0,0,0-.4.122l-.465.31a.243.243,0,0,0-.067.336l.269.4a.243.243,0,0,0,.336.067l.014-.009V11.3H8.737a.243.243,0,0,0-.243.243v.485a.243.243,0,0,0,.243.243h1.942a.243.243,0,0,0,.243-.243v-.485A.243.243,0,0,0,10.679,11.3Zm7.766-6.8H.971A.971.971,0,0,0,0,5.471v9.708a.971.971,0,0,0,.971.971H18.445a.971.971,0,0,0,.971-.971V5.471A.971.971,0,0,0,18.445,4.5ZM1.456,14.693V12.752A1.941,1.941,0,0,1,3.4,14.693Zm0-6.8V5.956H3.4A1.941,1.941,0,0,1,1.456,7.9Zm8.252,5.825a3.183,3.183,0,0,1-2.912-3.4,3.183,3.183,0,0,1,2.912-3.4,3.183,3.183,0,0,1,2.912,3.4A3.183,3.183,0,0,1,9.708,13.722Zm8.252.971H16.018a1.941,1.941,0,0,1,1.942-1.942Zm0-6.8a1.941,1.941,0,0,1-1.942-1.942h1.942Z" transform="translate(0 -4.5)" fill="#fff"/>
</svg>
