<svg xmlns="http://www.w3.org/2000/svg" width="13.864" height="13.864" viewBox="0 0 13.864 13.864">
  <g id="Icon_feather-copy" data-name="Icon feather-copy" transform="translate(-2.5 -2.5)">
    <path id="Path_365" data-name="Path 365" d="M14.786,13.5h5.789a1.286,1.286,0,0,1,1.286,1.286v5.789a1.286,1.286,0,0,1-1.286,1.286H14.786A1.286,1.286,0,0,1,13.5,20.575V14.786A1.286,1.286,0,0,1,14.786,13.5Z" transform="translate(-5.998 -5.998)" fill="none" stroke="#949494" stroke-linecap="round" stroke-linejoin="round" stroke-width="1"/>
    <path id="Path_366" data-name="Path 366" d="M4.93,11.362H4.286A1.286,1.286,0,0,1,3,10.075V4.286A1.286,1.286,0,0,1,4.286,3h5.789a1.286,1.286,0,0,1,1.286,1.286V4.93" transform="translate(0 0)" fill="none" stroke="#949494" stroke-linecap="round" stroke-linejoin="round" stroke-width="1"/>
  </g>
</svg>
