<svg xmlns="http://www.w3.org/2000/svg" width="12.801" height="11.887" viewBox="0 0 12.801 11.887">
  <path id="Icon_ionic-ios-star" data-name="Icon ionic-ios-star" d="M14.566,7.49h-4.2L9.085,3.678a.463.463,0,0,0-.869,0L6.939,7.49H2.707a.459.459,0,0,0-.457.457.336.336,0,0,0,.009.077.439.439,0,0,0,.191.323L5.9,10.782,4.579,14.637a.459.459,0,0,0,.157.514.442.442,0,0,0,.257.111.56.56,0,0,0,.286-.1l3.372-2.4,3.372,2.4a.535.535,0,0,0,.286.1.411.411,0,0,0,.254-.111.453.453,0,0,0,.157-.514l-1.326-3.855L14.82,8.324l.083-.071a.437.437,0,0,0-.337-.763Z" transform="translate(-2.25 -3.375)" fill="#e6c832"/>
</svg>
