<svg xmlns="http://www.w3.org/2000/svg" width="14.706" height="14.705" viewBox="0 0 14.706 14.705">
  <path id="Icon_ionic-ios-call" data-name="Icon ionic-ios-call" d="M18.772,16.017a12.352,12.352,0,0,0-2.58-1.727c-.773-.371-1.057-.364-1.6.031-.456.329-.75.636-1.275.521a7.605,7.605,0,0,1-2.561-1.9,7.55,7.55,0,0,1-1.9-2.561c-.111-.528.2-.819.521-1.275.394-.547.406-.831.031-1.6a12.108,12.108,0,0,0-1.727-2.58c-.563-.563-.689-.44-1-.329a5.686,5.686,0,0,0-.915.486,2.76,2.76,0,0,0-1.1,1.16c-.218.471-.471,1.348.815,3.637a20.294,20.294,0,0,0,3.568,4.759h0l0,0,0,0h0a20.373,20.373,0,0,0,4.759,3.568c2.289,1.286,3.166,1.034,3.637.815a2.713,2.713,0,0,0,1.16-1.1,5.686,5.686,0,0,0,.486-.915C19.212,16.706,19.338,16.58,18.772,16.017Z" transform="translate(-4.49 -4.502)" fill="#55c779"/>
</svg>
