<svg xmlns="http://www.w3.org/2000/svg" width="111.308" height="111.308" viewBox="0 0 111.308 111.308">
  <g id="revenue" transform="translate(0)">
    <path id="Path_337" data-name="Path 337" d="M229.566,122a19.566,19.566,0,1,0,19.566,19.566A19.587,19.587,0,0,0,229.566,122Zm3.261,26.088H226.3V135.044h6.522Zm0,0" transform="translate(-164.346 -95.477)" fill="#55c779"/>
    <path id="Path_338" data-name="Path 338" d="M373.044,32a13.044,13.044,0,1,0,13.044,13.044A13.06,13.06,0,0,0,373.044,32Zm0,0" transform="translate(-281.737 -25.043)" fill="#55c779"/>
    <path id="Path_339" data-name="Path 339" d="M249.783,0a9.783,9.783,0,1,0,9.783,9.783A9.8,9.8,0,0,0,249.783,0Zm0,0" transform="translate(-187.824)" fill="#55c779"/>
    <path id="Path_340" data-name="Path 340" d="M94.809,310.391l-16.846,17.7H46.74v-6.522H75a13.044,13.044,0,0,0-13.044-13.044h-16.3a16.306,16.306,0,0,0-25.018-1.285c-4.309,4.66-9.993,7.807-16.339,7.807H0v32.61H82.608l28.7-35.874a10.619,10.619,0,0,0-16.5-1.388Zm0,0" transform="translate(0 -236.346)" fill="#55c779"/>
  </g>
</svg>
