<svg xmlns="http://www.w3.org/2000/svg" width="24.722" height="30.138" viewBox="0 0 24.722 30.138">
  <path id="Path_386" data-name="Path 386" d="M58.361,0H48.943A2.946,2.946,0,0,0,46,2.943V27.194a2.946,2.946,0,0,0,2.943,2.943h9.418A2.946,2.946,0,0,0,61.3,27.194V20.366h7.652A1.768,1.768,0,0,0,70.722,18.6V8.005a1.768,1.768,0,0,0-1.766-1.766H61.3v-3.3A2.946,2.946,0,0,0,58.361,0Zm1.766,27.194a1.768,1.768,0,0,1-1.766,1.766H48.943a1.768,1.768,0,0,1-1.766-1.766V2.943a1.768,1.768,0,0,1,1.766-1.766h9.418a1.768,1.768,0,0,1,1.766,1.766v3.3H51.3a1.768,1.768,0,0,0-1.766,1.766V18.6A1.768,1.768,0,0,0,51.3,20.366h8.829Zm8.829-8.005H51.3a.589.589,0,0,1-.589-.589V12.126h7.358a.589.589,0,0,0,0-1.177H50.709V9.771H69.545v1.177H63.364a.589.589,0,0,0,0,1.177h6.181V18.6A.589.589,0,0,1,68.956,19.189Zm.589-11.184v.589H50.709V8.005a.589.589,0,0,1,.589-.589H68.956A.589.589,0,0,1,69.545,8.005Z" transform="translate(-46)" fill="#6d6d6d"/>
</svg>
