<svg xmlns="http://www.w3.org/2000/svg" width="33.862" height="40.585" viewBox="0 0 33.862 40.585">
  <g id="service" transform="translate(0.001 -0.001)">
    <path id="Path_266" data-name="Path 266" d="M327.788,101.78a.793.793,0,1,1-.793-.792A.793.793,0,0,1,327.788,101.78Zm0,0" transform="translate(-300.346 -92.982)" fill="#707070"/>
    <path id="Path_267" data-name="Path 267" d="M29.022,282.212a2.469,2.469,0,0,0-2.694.318l-4.362,3.626a2.381,2.381,0,0,0-2.213-1.509h-8.99a3.939,3.939,0,0,0-2.8,1.161l-3.51,3.51a.792.792,0,0,0-.475-.159.8.8,0,0,0-.561.232L.369,292.438a.777.777,0,0,0-.137.109.793.793,0,0,0,0,1.121l.014.014h0l6.272,6.273a.793.793,0,0,0,1.121,0l3.17-3.17a.793.793,0,0,0,0-1.121l2.14-2.14h7.157a3.956,3.956,0,0,0,2.678-1.041l6.8-6.236A2.473,2.473,0,0,0,29.022,282.212ZM7.078,298.274l-5.152-5.152,2.049-2.049,5.152,5.152Zm21.438-13.2-6.8,6.236a2.374,2.374,0,0,1-1.607.625H12.621a.792.792,0,0,0-.56.232l-2.372,2.372-4.11-4.11,3.5-3.5a2.363,2.363,0,0,1,1.682-.7h8.99a.793.793,0,0,1,0,1.585H13.413a.793.793,0,1,0,0,1.585h6.341a2.386,2.386,0,0,0,1.844-.878l5.748-4.779a.887.887,0,0,1,1.171,1.331Zm0,0" transform="translate(0 -259.601)" fill="#707070"/>
    <path id="Path_268" data-name="Path 268" d="M29.2,15.713l-.176.614h-.987a.793.793,0,1,0,0,1.585h1.1l.928,1.856a2.365,2.365,0,0,0,2.127,1.315H54a2.365,2.365,0,0,0,2.127-1.315l.928-1.856h1.1a.793.793,0,0,0,0-1.585h-.987l-.176-.614a15.379,15.379,0,0,0-2.509-5.031.793.793,0,0,0-1.267.952,13.809,13.809,0,0,1,2.252,4.514l.051.178H30.671l.051-.179c1.557-5.45,6.557-9.808,12.372-9.808A11.9,11.9,0,0,1,48.71,7.764a.793.793,0,0,0,.742-1.4,13.914,13.914,0,0,0-3.781-1.348,3.17,3.17,0,1,0-5.153,0A15.15,15.15,0,0,0,29.2,15.714ZM54,19.5H32.185a.789.789,0,0,1-.709-.438L30.9,17.913H55.285l-.573,1.147A.789.789,0,0,1,54,19.5ZM41.509,3.171a1.585,1.585,0,1,1,1.585,1.585A1.587,1.587,0,0,1,41.509,3.171Zm0,0" transform="translate(-25.084)" fill="#707070"/>
  </g>
</svg>
